<svg xmlns="http://www.w3.org/2000/svg" viewBox="0 0 534.19 516.16"><defs><style>.a{font-size:58px;font-family:MajorMonoDisplay-Regular, Major Mono Display;}.b{fill:#ededed;}.c{fill:#d6d6d6;}.d{fill:#262626;}.e{fill:none;stroke:#262626;stroke-linejoin:round;stroke-width:26px;}.f{fill:#97ff80;}</style></defs><text class="a" transform="translate(0 49.18) scale(0.89 1)">010110010101<tspan x="0" y="69.6">0101010</tspan><tspan x="0" y="139.2">101010101010</tspan><tspan x="0" y="208.8">01010101010</tspan><tspan x="0" y="278.4">010101010</tspan><tspan x="0" y="348">01010101010101</tspan></text><path class="b" d="M901.5,318.5l193,52s-30.13,373.36-193,393" transform="translate(-642.41 -247.34)"/><path class="c" d="M901.37,318.32l-193,52s30.13,373.35,193,393" transform="translate(-642.41 -247.34)"/><rect class="d" x="175.59" y="248.86" width="166.98" height="154.8" rx="14.95"/><path class="e" d="M953.46,496.2V437.59a10.42,10.42,0,0,0-.18-1.93C952.05,429,943.48,393,901.86,393s-50.2,36-51.43,42.66a11.35,11.35,0,0,0-.17,1.93V496.2" transform="translate(-642.41 -247.34)"/><circle class="f" cx="202.09" cy="276.16" r="3.5"/></svg>