<svg id="Layer_1" data-name="Layer 1" xmlns="http://www.w3.org/2000/svg" viewBox="0 0 2858.48 1742.17"><defs><style>.cls-1{fill:#f7ede6;}.cls-2{fill:#f34e4f;}.cls-3{fill:#2f494a;}.cls-4{fill:none;stroke:#2f494a;stroke-miterlimit:10;stroke-width:2px;}</style></defs><path class="cls-1" d="M417.83,1135S375,606,656,758s279-5,336-11,364,51.48,239,295.74S692,1451,542,1353,417.83,1135,417.83,1135Z" transform="translate(542.42 360.35)"/><path class="cls-1" d="M415.35,75.93C364.5-90,239.65,31.15,75.23-164.06S-275-464.34-290.58-210.7s198,369-157.26,556.32S-51.76,821.11,68.3,715C438.52,387.69,415.35,75.93,415.35,75.93Z" transform="translate(542.42 360.35)"/><circle class="cls-2" cx="587.92" cy="1320.85" r="151"/><path class="cls-1" d="M1277.5,285.5c-23,172,141,114,209,360s193,419,313,195-26-418,375-440-161.6-597.38-315-551C1386.5-7.5,1277.5,285.5,1277.5,285.5Z" transform="translate(542.42 360.35)"/><circle class="cls-3" cx="655.42" cy="1128.35" r="10"/><circle class="cls-3" cx="722.42" cy="1128.35" r="10"/><circle class="cls-3" cx="789.42" cy="1128.35" r="10"/><circle class="cls-3" cx="856.42" cy="1128.35" r="10"/><circle class="cls-3" cx="655.42" cy="1189.35" r="10"/><circle class="cls-3" cx="722.42" cy="1189.35" r="10"/><circle class="cls-3" cx="789.42" cy="1189.35" r="10"/><circle class="cls-3" cx="856.42" cy="1189.35" r="10"/><circle class="cls-3" cx="655.42" cy="1250.35" r="10"/><circle class="cls-3" cx="722.42" cy="1250.35" r="10"/><circle class="cls-3" cx="789.42" cy="1250.35" r="10"/><circle class="cls-3" cx="856.42" cy="1250.35" r="10"/><circle class="cls-3" cx="655.42" cy="1311.35" r="10"/><circle class="cls-3" cx="722.42" cy="1311.35" r="10"/><circle class="cls-3" cx="789.42" cy="1311.35" r="10"/><circle class="cls-3" cx="856.42" cy="1311.35" r="10"/><circle class="cls-2" cx="1443.42" cy="608.35" r="47"/><circle class="cls-2" cx="1954.3" cy="1249.9" r="28.55"/><circle class="cls-2" cx="1882.42" cy="940.35" r="10"/><circle class="cls-2" cx="1949.42" cy="940.35" r="10"/><circle class="cls-2" cx="2016.42" cy="940.35" r="10"/><circle class="cls-2" cx="2083.42" cy="940.35" r="10"/><circle class="cls-2" cx="1882.42" cy="1001.35" r="10"/><circle class="cls-2" cx="1949.42" cy="1001.35" r="10"/><circle class="cls-2" cx="2016.42" cy="1001.35" r="10"/><circle class="cls-2" cx="2083.42" cy="1001.35" r="10"/><circle class="cls-2" cx="1882.42" cy="1062.35" r="10"/><circle class="cls-2" cx="1949.42" cy="1062.35" r="10"/><circle class="cls-2" cx="2016.42" cy="1062.35" r="10"/><circle class="cls-2" cx="2083.42" cy="1062.35" r="10"/><circle class="cls-2" cx="1882.42" cy="1123.35" r="10"/><circle class="cls-2" cx="1949.42" cy="1123.35" r="10"/><circle class="cls-2" cx="2016.42" cy="1123.35" r="10"/><circle class="cls-2" cx="2083.42" cy="1123.35" r="10"/><path class="cls-4" d="M-63,85C61,194,137-59,137-59s-18-79-79,12S-67.61-112.43-75-9C-78,33-63,85-63,85Z" transform="translate(542.42 360.35)"/><path class="cls-4" d="M-37,135S118,185.64,180-35.18,62.64-62.31,29.32-69.16-130-102-97,18-37,135-37,135Z" transform="translate(542.42 360.35)"/><path class="cls-4" d="M-34,161S201,142,210,30s48-257.44-107-171.22S-27.49-126.62-89.25-90.81-149,61-125,85-72,166-34,161Z" transform="translate(542.42 360.35)"/><path class="cls-4" d="M-34,182s260-5.57,281-163.79,12-164-41-193.21-18-3-148,41S-98.37-209.23-178.24,10.73C-219,123-34,182-34,182Z" transform="translate(542.42 360.35)"/><path class="cls-4" d="M296-38c10-251-183-149.33-183-149.33s-17.16,32.89-97.08,46.11S-154-187-173-82s-34,63-41,202S286,213,296-38Z" transform="translate(542.42 360.35)"/><path class="cls-4" d="M-46,229c193-17,211-55.62,370-176.81S255-303.2,113-226.1s-7.49,28.78-202.25,72.94S-149-165-238,18-46,229-46,229Z" transform="translate(542.42 360.35)"/><path class="cls-4" d="M-214.07-252" transform="translate(542.42 360.35)"/><rect class="cls-3" x="1019.42" y="1321.35" width="15" height="157"/><rect class="cls-3" x="1077.42" y="335.35" width="16" height="97"/><rect class="cls-3" x="1721.42" y="834.35" width="12" height="96"/><rect class="cls-3" x="611.42" y="900.35" width="10" height="82"/><rect class="cls-3" x="2199.42" y="1391.35" width="11" height="73"/><rect class="cls-3" x="2006.42" y="335.35" width="20" height="108"/><path class="cls-4" d="M-27.76,0s-35.77,32,0,72S106,30.46,79,10.73-27.76,0-27.76,0Z" transform="translate(542.42 360.35)"/></svg>