<svg xmlns="http://www.w3.org/2000/svg" viewBox="0 0 424 583"><defs><style>.a,.b{fill:#f6f6f6;}.b{stroke:#040d21;stroke-miterlimit:10;stroke-width:26px;}</style></defs><rect class="a" x="13" y="287" width="398" height="283" rx="11.33"/><path class="a" d="M1146.25,550V807h-372V550h372m1.67-26H772.58a24.33,24.33,0,0,0-24.33,24.33V808.67A24.33,24.33,0,0,0,772.58,833h375.34a24.33,24.33,0,0,0,24.33-24.33V548.33A24.33,24.33,0,0,0,1147.92,524Z" transform="translate(-748.25 -250)"/><circle class="b" cx="211.75" cy="396.5" r="32"/><line class="b" x1="211.75" y1="428.5" x2="211.75" y2="481.1"/><path class="a" d="M1114.5,506.76l-.32-87.71s0-169-154-169-154,169.05-154,169.05V524.5l27-.06-.12-106.6s0-145,127.12-145,127.12,145,127.12,145v63.9l11.2,10v5.89h-11.2v9.07Z" transform="translate(-748.25 -250)"/></svg>