<svg xmlns="http://www.w3.org/2000/svg" viewBox="0 0 578 216.5"><defs><style>.a,.f{fill:#ededed;}.b{fill:#d6d6d6;}.c{fill:#262626;}.d{fill:#3b3b3b;}.e{fill:#97ff80;}.f{stroke:#dbdbdb;stroke-miterlimit:10;}</style></defs><path class="a" d="M835,605.84H656.75V485.6a5.6,5.6,0,0,1,5.6-5.6h167a5.6,5.6,0,0,1,5.6,5.6Z" transform="translate(-257 -395.5)"/><path class="b" d="M399.75,210.34H578a0,0,0,0,1,0,0v1.6a4.55,4.55,0,0,1-4.55,4.55H404.3a4.55,4.55,0,0,1-4.55-4.55v-1.6A0,0,0,0,1,399.75,210.34Z"/><rect class="a" x="480.52" y="213.08" width="16.38" height="3.42"/><ellipse class="b" cx="488.88" cy="91.68" rx="2.29" ry="2.39"/><rect class="c" x="0.5" y="30" width="76" height="186" rx="7.25"/><path class="d" d="M326.25,426a6.76,6.76,0,0,1,6.75,6.75v171.5a6.76,6.76,0,0,1-6.75,6.75h-61.5a6.76,6.76,0,0,1-6.75-6.75V432.75a6.76,6.76,0,0,1,6.75-6.75h61.5m0-1h-61.5a7.75,7.75,0,0,0-7.75,7.75v171.5a7.75,7.75,0,0,0,7.75,7.75h61.5a7.75,7.75,0,0,0,7.75-7.75V432.75a7.75,7.75,0,0,0-7.75-7.75Z" transform="translate(-257 -395.5)"/><circle class="e" cx="11.5" cy="43" r="3.5"/><rect class="c" x="10.5" y="58" width="56" height="5"/><path class="d" d="M323,454v4H268v-4h55m1-1H267v6h57v-6Z" transform="translate(-257 -395.5)"/><rect class="c" x="10.5" y="68" width="56" height="5"/><path class="d" d="M323,464v4H268v-4h55m1-1H267v6h57v-6Z" transform="translate(-257 -395.5)"/><rect class="b" x="208" y="144.5" width="26" height="58"/><rect class="f" x="180" y="202.5" width="82" height="5.5" rx="1.2"/><rect class="f" x="96" y="0.5" width="250" height="144" rx="3.66"/></svg>