<svg id="Layer_1" data-name="Layer 1" xmlns="http://www.w3.org/2000/svg" viewBox="0 0 744.74 90.88"><path d="M575.25,492.06H636.5v4.63H579.88v35.25h49.25v4.62H579.88v37.88H636.5v4.62H575.25Z" transform="translate(-575.25 -490.06)"/><path d="M659.25,579.06h-4.62V492l5,.06L709,546.75l50.25-54.69,4.63-.06v87.06h-4.63V501.31L711.13,552h-4.38l-47.5-51.31Z" transform="translate(-575.25 -490.06)"/><path d="M849.5,492.06v4.63h-26v77.75h26v4.62H793.13v-4.62H819V496.69H793.13v-4.63Z" transform="translate(-575.25 -490.06)"/><path d="M898.31,532.75a25.54,25.54,0,0,1-10.5-7Q884,521.31,884,514.31a21.85,21.85,0,0,1,3.81-12.75,24.61,24.61,0,0,1,10.75-8.5,40.2,40.2,0,0,1,16.07-3,35.16,35.16,0,0,1,16.06,3.69,29,29,0,0,1,11.56,10.31,27.44,27.44,0,0,1,4.25,15.13h-4.62a23.43,23.43,0,0,0-3.63-13,24.14,24.14,0,0,0-9.87-8.69,31.17,31.17,0,0,0-13.88-3.06,36.94,36.94,0,0,0-12.62,2.12,22.1,22.1,0,0,0-9.57,6.5,16.49,16.49,0,0,0-3.68,11q0,6,3.5,9.56a22.41,22.41,0,0,0,9.12,5.44,148.2,148.2,0,0,0,15.75,4,141.91,141.91,0,0,1,15.94,4.06,22,22,0,0,1,9.62,6.44q3.95,4.5,3.94,12.63a21.67,21.67,0,0,1-4.31,13.68,26,26,0,0,1-11.44,8.32,42.77,42.77,0,0,1-15.5,2.75A40.88,40.88,0,0,1,897,577.06a28,28,0,0,1-12.06-10.94,31.11,31.11,0,0,1-4.19-16.18h4.63a26.86,26.86,0,0,0,3.56,14,23.85,23.85,0,0,0,10.31,9.31,35.92,35.92,0,0,0,16,3.31q11.5,0,19.06-5.5a17.56,17.56,0,0,0,7.57-15q0-6.49-3.25-10a18.63,18.63,0,0,0-8.19-5.06q-4.94-1.56-14.81-3.56A110,110,0,0,1,898.31,532.75Z" transform="translate(-575.25 -490.06)"/><path d="M990.81,532.75a25.54,25.54,0,0,1-10.5-7q-3.81-4.44-3.81-11.44a21.85,21.85,0,0,1,3.81-12.75,24.61,24.61,0,0,1,10.75-8.5,40.19,40.19,0,0,1,16.06-3,35.17,35.17,0,0,1,16.07,3.69,29,29,0,0,1,11.56,10.31,27.44,27.44,0,0,1,4.25,15.13h-4.62a23.43,23.43,0,0,0-3.63-13,24.14,24.14,0,0,0-9.87-8.69,31.17,31.17,0,0,0-13.88-3.06,36.94,36.94,0,0,0-12.62,2.12,22.1,22.1,0,0,0-9.57,6.5,16.49,16.49,0,0,0-3.69,11q0,6,3.5,9.56a22.52,22.52,0,0,0,9.13,5.44,148.2,148.2,0,0,0,15.75,4,142.49,142.49,0,0,1,15.94,4.06,22,22,0,0,1,9.62,6.44q3.95,4.5,3.94,12.63a21.67,21.67,0,0,1-4.31,13.68,26,26,0,0,1-11.44,8.32,42.77,42.77,0,0,1-15.5,2.75,40.88,40.88,0,0,1-18.25-3.88,28,28,0,0,1-12.06-10.94,31,31,0,0,1-4.19-16.18h4.63a26.86,26.86,0,0,0,3.56,14,23.85,23.85,0,0,0,10.31,9.31,35.92,35.92,0,0,0,16,3.31q11.5,0,19.06-5.5a17.56,17.56,0,0,0,7.57-15q0-6.49-3.26-10a18.54,18.54,0,0,0-8.18-5.06q-5-1.56-14.82-3.56A110.11,110.11,0,0,1,990.81,532.75Z" transform="translate(-575.25 -490.06)"/><path d="M1096.37,492.06h4.88l35.75,87h-5l-11.75-28.75h-42.88l-11.87,28.75h-4.88Zm-17.12,53.75h39.12l-19.62-47.75Z" transform="translate(-575.25 -490.06)"/><path d="M1221.94,505.31a28.18,28.18,0,0,1,4.31,15.25,28.68,28.68,0,0,1-21.13,27.63l22.13,30.87h-5.5l-21.38-30-4,.13H1165v29.87h-4.63v-87h33.13a55.69,55.69,0,0,1,9.44.69,29,29,0,0,1,7.18,2.19A27.26,27.26,0,0,1,1221.94,505.31Zm-24.32,39.25a23.1,23.1,0,0,0,12-3.25,24.3,24.3,0,0,0,8.75-8.75,23.1,23.1,0,0,0,3.25-12,23.58,23.58,0,0,0-3.81-13.12,22.93,22.93,0,0,0-10.56-8.75q-4.87-2-13.75-2H1165v47.87Z" transform="translate(-575.25 -490.06)"/><path d="M1253,492.06l30.87,46.5,30.63-46.5h5.5l-33.88,51.38v35.62h-4.62V543.44l-34-51.38Z" transform="translate(-575.25 -490.06)"/><rect x="83.75" y="83.94" width="104" height="5.06"/><rect x="80.75" y="1.94" width="104" height="5"/></svg>